<svg xmlns="http://www.w3.org/2000/svg" width="244" height="93.037" viewBox="0 0 244 93.037"><defs><style>.a{fill:#003777;}.b{fill:#606060;font-size:18px;font-family:'proxima-font-bold', proxima-font-bold;font-weight:700;}</style></defs><g transform="translate(-97.891 -1213.494)"><path class="a" d="M107.641,1224.35c0-2.251,1.914-3.77,5.346-3.77a16.121,16.121,0,0,1,10.918,4.108l4.446-5.853c-3.714-3.433-8.667-5.234-14.633-5.234-8.836,0-14.239,5.177-14.239,11.425,0,14.126,21.612,9.568,21.612,16.208,0,2.139-2.139,4.165-6.529,4.165a16.457,16.457,0,0,1-11.931-5.066l-4.333,6.078c3.489,3.546,8.667,5.966,15.871,5.966,10.13,0,15.027-5.178,15.027-12.044C129.2,1226.32,107.641,1230.316,107.641,1224.35Z" transform="translate(0 -0.05)"/><rect class="a" width="7.992" height="37.539" transform="translate(134.6 1214.113)"/><path class="a" d="M212.4,1220.585a10.174,10.174,0,0,1,8.836,5.459l6.866-3.376a17.182,17.182,0,0,0-15.7-9.174c-11.256,0-19.979,7.88-19.979,19.417s8.723,19.417,19.979,19.417c8.274,0,13-4.559,15.7-9.23l-6.866-3.32a10.065,10.065,0,0,1-8.836,5.459c-6.81,0-11.763-5.234-11.763-12.325S205.59,1220.585,212.4,1220.585Z" transform="translate(-44.2)"/><rect class="a" width="7.992" height="37.539" transform="translate(188.687 1214.113)"/><path class="a" d="M293.44,1214.661v7.035h10.975v30.5h8.048v-30.5h10.919v-7.035Z" transform="translate(-91.639 -0.548)"/></g><text class="b" transform="translate(0 47.037)"><tspan x="0" y="17">Sistema Integrado de Casos </tspan><tspan x="0" y="41">de Inspección del Trabajo</tspan></text></svg>