<svg xmlns="http://www.w3.org/2000/svg" width="258.106" height="131.291" viewBox="0 0 258.106 131.291"><defs><style>.a{fill:#fff;}</style></defs><g transform="translate(-182.776 -265.538)"><path class="a" d="M321.944,444.527a2.71,2.71,0,0,0-.29.018q-1.5.141-5.6.141-3.66,0-5.051-.141a1.016,1.016,0,0,0-.413.008c-.077.03-.121.132-.132.309a11.657,11.657,0,0,1-.422,2.217q-.053.229.246.264a.417.417,0,0,0,.528-.264,1.733,1.733,0,0,1,1.029-.818,5.147,5.147,0,0,1,1.91-.325h.334a.485.485,0,0,1,.58.6v8.447a.973.973,0,0,1-.483.924,4.727,4.727,0,0,1-1.54.431c-.048,0-.071.056-.071.168a1.1,1.1,0,0,0,.053.334c.035.111.076.166.123.166h6.493c.047,0,.091-.055.132-.166a.919.919,0,0,0,.062-.317c0-.1-.024-.161-.071-.185a4.759,4.759,0,0,1-1.557-.431.973.973,0,0,1-.484-.924v-8.447q0-.6.7-.6h.423a3.617,3.617,0,0,1,1.663.334,1.507,1.507,0,0,1,.8.81.307.307,0,0,0,.352.247c.188-.012.293-.094.317-.247a21.829,21.829,0,0,1,.563-2.217.285.285,0,0,0-.009-.256A.23.23,0,0,0,321.944,444.527Z" transform="translate(-45.473 -63.959)"/><path class="a" d="M345.505,456.581a2.173,2.173,0,0,1-1.548-.986l-2.464-3.132a4.517,4.517,0,0,0-1.126-1.056,2.184,2.184,0,0,0-1.127-.3v-.088a3.751,3.751,0,0,0,2.305-.862,2.709,2.709,0,0,0,.933-2.182,2.775,2.775,0,0,0-1.2-2.411,5.808,5.808,0,0,0-3.379-.844q-.369,0-1.645.053t-2.1.053a16.5,16.5,0,0,1-2.059-.105q-.123-.018-.167.317t.062.369a2.308,2.308,0,0,1,1.073.555,1.633,1.633,0,0,1,.352,1.17V454.8a1.6,1.6,0,0,1-.343,1.135,1.727,1.727,0,0,1-1.082.449c-.047,0-.071.058-.071.176a1.152,1.152,0,0,0,.053.343c.035.111.076.166.123.166h5.737c.047,0,.085-.055.114-.166a1.365,1.365,0,0,0,.044-.343c0-.118-.017-.176-.053-.176a3.551,3.551,0,0,1-1.443-.44A1.253,1.253,0,0,1,336,454.8v-3.361a5.045,5.045,0,0,1,1.575.228,2.588,2.588,0,0,1,1.135.932l2.657,3.414a3.624,3.624,0,0,0,4.135,1.108c.047-.011.076-.105.088-.281S345.576,456.581,345.505,456.581Zm-9.063-6.037H336V447.13a1.7,1.7,0,0,1,.255-1.065,1.23,1.23,0,0,1,.977-.308,2.509,2.509,0,0,1,1.856.695,2.755,2.755,0,0,1,.7,2.033,1.759,1.759,0,0,1-.7,1.637A5.649,5.649,0,0,1,336.442,450.544Z" transform="translate(-53.293 -64.027)"/><path class="a" d="M368.421,456.306a1.691,1.691,0,0,1-.933-.44,4.411,4.411,0,0,1-.809-1.373l-4.294-10.013q-.036-.088-.651.044t-.616.22a8.412,8.412,0,0,1-.9,2.852l-2.974,6.915a4.14,4.14,0,0,1-.809,1.355,1.883,1.883,0,0,1-.951.44q-.141.036-.114.352t.167.316H359.5q.175,0,.2-.316c.018-.211-.033-.328-.15-.352a3,3,0,0,1-.572-.132,1.021,1.021,0,0,1-.4-.264.692.692,0,0,1-.158-.537,2.7,2.7,0,0,1,.229-.862l.053-.159a.82.82,0,0,1,.308-.422,1.375,1.375,0,0,1,.589-.088h3.449a1.208,1.208,0,0,1,.537.088.75.75,0,0,1,.29.422l.088.159a2.86,2.86,0,0,1,.255.88.641.641,0,0,1-.15.528,1.211,1.211,0,0,1-.352.255,2.013,2.013,0,0,1-.476.132q-.141.036-.132.352t.185.316h5.085q.158,0,.184-.316C368.589,456.448,368.538,456.33,368.421,456.306Zm-5.385-3.66a.539.539,0,0,1-.3.07h-2.851a.649.649,0,0,1-.316-.061q-.106-.062-.035-.238l1.778-4.259,1.76,4.259Q363.142,452.576,363.037,452.646Z" transform="translate(-61.673 -63.93)"/><path class="a" d="M386.359,450.369v-.124a2.9,2.9,0,0,0,1.663-.95,2.455,2.455,0,0,0,.572-1.725,2.412,2.412,0,0,0-1.161-2.112,5.231,5.231,0,0,0-2.886-.738q-.264,0-1.39.053t-2.094.053a18.909,18.909,0,0,1-2.235-.105c-.07-.012-.12.093-.149.317s-.009.34.062.352a4.038,4.038,0,0,1,.721.255,1.355,1.355,0,0,1,.493.467,1.43,1.43,0,0,1,.229.827v7.69a2.213,2.213,0,0,1-.114.774.964.964,0,0,1-.422.484,2.919,2.919,0,0,1-.51.254c-.136.048-.379.118-.731.211-.07.012-.088.144-.053.4s.088.372.159.36q.951-.105,2.974-.105.827,0,1.839.053t1.346.053a6.083,6.083,0,0,0,3.573-.985,3.069,3.069,0,0,0,1.408-2.64,2.855,2.855,0,0,0-.977-2.26A3.4,3.4,0,0,0,386.359,450.369Zm-3.59-3.432A1.445,1.445,0,0,1,383,446a.979.979,0,0,1,.774-.264,1.964,1.964,0,0,1,1.593.659,2.664,2.664,0,0,1,.555,1.769q0,1.849-1.461,1.848h-1.69Zm1.707,9.15a1.919,1.919,0,0,1-1.319-.36,1.436,1.436,0,0,1-.388-1.1v-3.608h1.69a2.13,2.13,0,0,1,1.777.871,3.3,3.3,0,0,1,.669,2.068Q386.9,456.088,384.476,456.087Z" transform="translate(-69.88 -64.027)"/><path class="a" d="M412.287,456.306a1.687,1.687,0,0,1-.933-.44,4.4,4.4,0,0,1-.81-1.373l-4.294-10.013q-.036-.088-.651.044t-.616.22a8.411,8.411,0,0,1-.9,2.852l-2.974,6.915a4.14,4.14,0,0,1-.809,1.355,1.883,1.883,0,0,1-.951.44q-.141.036-.114.352t.167.316h3.959q.176,0,.2-.316t-.15-.352a3,3,0,0,1-.572-.132,1.021,1.021,0,0,1-.4-.264.7.7,0,0,1-.158-.537,2.705,2.705,0,0,1,.229-.862l.053-.159a.823.823,0,0,1,.308-.422,1.379,1.379,0,0,1,.59-.088h3.449a1.211,1.211,0,0,1,.537.088.753.753,0,0,1,.29.422l.089.159a2.876,2.876,0,0,1,.255.88.644.644,0,0,1-.149.528,1.222,1.222,0,0,1-.352.255,2.014,2.014,0,0,1-.476.132c-.094.024-.138.141-.132.352s.068.316.185.316h5.085c.106,0,.167-.105.185-.316S412.4,456.33,412.287,456.306Zm-5.385-3.66a.538.538,0,0,1-.3.07h-2.852a.649.649,0,0,1-.316-.061c-.071-.041-.082-.12-.035-.238l1.778-4.259,1.76,4.259Q407.008,452.576,406.9,452.646Z" transform="translate(-77.348 -63.93)"/><path class="a" d="M427.946,444.774H422.7c-.047,0-.088.05-.123.15a.892.892,0,0,0-.053.3c0,.1.024.149.071.149a1.94,1.94,0,0,1,1.055.414,1.51,1.51,0,0,1,.37,1.17V457.2a4.089,4.089,0,0,1-.467,2.174,1.564,1.564,0,0,1-1.17.8c-.035.023-.056.088-.062.193a.553.553,0,0,0,.106.334.338.338,0,0,0,.29.176,4.051,4.051,0,0,0,2.49-1.215,3.366,3.366,0,0,0,1.4-2.464V446.956a1.741,1.741,0,0,1,.22-.932,1.107,1.107,0,0,1,.5-.467,3.419,3.419,0,0,1,.721-.184c.047,0,.07-.049.07-.149a.892.892,0,0,0-.053-.3C428.034,444.824,427.993,444.774,427.946,444.774Z" transform="translate(-85.598 -64.047)"/><path class="a" d="M441.456,444.336a6.126,6.126,0,0,0-4.637,1.891,6.468,6.468,0,0,0-1.8,4.637,6.116,6.116,0,0,0,1.831,4.549,6.251,6.251,0,0,0,4.575,1.8,6.117,6.117,0,0,0,4.645-1.891,6.5,6.5,0,0,0,1.795-4.655,6.1,6.1,0,0,0-1.821-4.549A6.282,6.282,0,0,0,441.456,444.336Zm2.913,10.506a2.942,2.942,0,0,1-2.191.985,4.046,4.046,0,0,1-3.186-1.769,6.666,6.666,0,0,1-1.407-4.285,4.318,4.318,0,0,1,.932-3.07,2.925,2.925,0,0,1,2.182-.977,4.053,4.053,0,0,1,3.2,1.769,6.637,6.637,0,0,1,1.408,4.267A4.332,4.332,0,0,1,444.368,454.842Z" transform="translate(-90.134 -63.891)"/><path class="a" d="M407.247,321.5c-.04-.46-.091-.915-.145-1.369a35.307,35.307,0,0,0-2.312-9.641,26.588,26.588,0,0,0-1.391-2.941c-.137-.245-.281-.477-.422-.714-2.913-5.4-7.076-9.537-11.925-11.644l0,0-.018-.011.034.045a19.918,19.918,0,0,1,2.624,3.269,38.541,38.541,0,0,1,5.837,17.193,39.413,39.413,0,0,1,.26,4.542c.013.4.029,1.056.034,1.281l-.017.087,1.2,0,6.213-.019v0h.035Z" transform="translate(-74.418 -10.591)"/><path class="a" d="M.517,0h.71a.517.517,0,0,1,.517.517V5.908a.518.518,0,0,1-.518.518H.518A.518.518,0,0,1,0,5.908V.517A.517.517,0,0,1,.517,0Z" transform="translate(313.627 274.892)"/><path class="a" d="M385.28,273.044a4.385,4.385,0,0,0-4.215-4.434v-.721h1.164v-.125l0,0v-.429a.04.04,0,0,0-.04-.039h-.172a.04.04,0,0,0-.04.039v.422h-.915V266.1h.024a.051.051,0,0,0,.051-.051v-.458a.05.05,0,0,0-.051-.049h-.2a.05.05,0,0,0-.051.049v.458a.05.05,0,0,0,.051.051h.029v1.657h-.928v-.422a.039.039,0,0,0-.039-.039h-.173a.039.039,0,0,0-.04.039v.429l0,0v.125h1.177v.721a4.386,4.386,0,0,0-4.212,4.452v.019h8.576Z" transform="translate(-69.297)"/><path class="a" d="M.287,0h10.88a.287.287,0,0,1,.287.287v.22a.288.288,0,0,1-.288.288H.288A.288.288,0,0,1,0,.506V.287A.287.287,0,0,1,.287,0Z" transform="translate(305.956 273.628)"/><path class="a" d="M398.926,294.737c.362.267.778.586,1.237.964a30.159,30.159,0,0,1,2.753,2.623,32.32,32.32,0,0,1,5.524,8.231,40.428,40.428,0,0,1,3.03,8.833c.535,2.673.805,5.67.805,5.67h4.1l-.007-.067.159.06s0-.021,0-.032A30.638,30.638,0,0,0,397.4,293.743l-.041-.018a10.4,10.4,0,0,1,.906.554C398.462,294.417,398.689,294.573,398.926,294.737Z" transform="translate(-76.676 -10.072)"/><rect class="a" width="59.572" height="2.058" rx="0.517" transform="translate(281.924 318.869)"/><rect class="a" width="3.174" height="3.174" rx="0.517" transform="translate(310.116 314.948)"/><path class="a" d="M.517,0H2.659a.517.517,0,0,1,.517.517V2.658a.517.517,0,0,1-.517.517H.518A.518.518,0,0,1,0,2.656V.517A.517.517,0,0,1,.517,0Z" transform="translate(287.676 314.948)"/><rect class="a" width="3.174" height="3.174" rx="0.517" transform="translate(297.82 314.948)"/><path class="a" d="M385.748,296.083l-.118-.1,0,25.88,9.493.033s0-.268,0-.4C395.123,310.459,391.321,300.879,385.748,296.083Z" transform="translate(-72.486 -10.879)"/><path class="a" d="M339.763,321.077h1.6l1.385,0v-.005h1.116s.271-3,.8-5.672a34.382,34.382,0,0,1,1.267-4.526,33.827,33.827,0,0,1,1.762-4.309,32.365,32.365,0,0,1,5.524-8.234,30.331,30.331,0,0,1,2.753-2.623c.457-.377.872-.7,1.235-.963.238-.165.465-.322.668-.46a10.243,10.243,0,0,1,.906-.552l-.042.016a30.648,30.648,0,0,0-19.131,27.286c0,.01,0,.032,0,.032h.153Z" transform="translate(-56.042 -10.076)"/><path class="a" d="M337.236,339.722h59.2a.185.185,0,0,0,.185-.184v-.5a.185.185,0,0,0-.185-.185h-5.584v-.945a.278.278,0,0,0-.278-.278h-2.617a.278.278,0,0,0-.278.278v.945h-6.967v-.945a.278.278,0,0,0-.278-.278h-2.617a.278.278,0,0,0-.278.278v.945h-9.126v-.95a.278.278,0,0,0-.278-.278H365.52a.278.278,0,0,0-.278.278v.95H356.12v-.95a.278.278,0,0,0-.278-.278h-2.618a.278.278,0,0,0-.278.278v.95h-6.968v-.95a.278.278,0,0,0-.278-.278h-2.618a.279.279,0,0,0-.28.278v.95h-5.565a.185.185,0,0,0-.184.185v.5A.185.185,0,0,0,337.236,339.722Z" transform="translate(-55.128 -25.759)"/><path class="a" d="M375.893,321.881l0-25.889-.118.1c-5.574,4.8-9.375,14.379-9.375,25.418,0,.134,0,.4,0,.4Z" transform="translate(-65.614 -10.882)"/><path class="a" d="M.517,0H2.655a.518.518,0,0,1,.518.518V2.655a.517.517,0,0,1-.517.517H.517A.517.517,0,0,1,0,2.655V.517A.517.517,0,0,1,.517,0Z" transform="translate(322.413 314.951)"/><path class="a" d="M.517,0H2.655a.518.518,0,0,1,.518.518V2.655a.517.517,0,0,1-.517.517H.517A.517.517,0,0,1,0,2.655V.517A.517.517,0,0,1,.517,0Z" transform="translate(332.553 314.951)"/><rect class="a" width="1.743" height="6.426" rx="0.517" transform="translate(308.004 274.892)"/><rect class="a" width="1.743" height="6.426" rx="0.517" transform="translate(310.823 274.892)"/><path class="a" d="M.288,0H11.166a.287.287,0,0,1,.287.287v.22a.288.288,0,0,1-.288.288H.288A.288.288,0,0,1,0,.507V.288A.288.288,0,0,1,.288,0Z" transform="translate(305.956 281.997)"/><path class="a" d="M364.09,298.5a19.963,19.963,0,0,1,2.623-3.27l.035-.046-.021.013,0,0c-4.851,2.109-9.015,6.247-11.928,11.655-.14.235-.283.465-.419.708a26.592,26.592,0,0,0-1.39,2.943,35.32,35.32,0,0,0-2.313,9.648c-.055.452-.1.906-.145,1.364,0,.024-.006.071-.006.071h.036v.005l6.22.018,1.19,0-.017-.086c.005-.225.021-.88.035-1.283a42.27,42.27,0,0,1,6.1-21.74Z" transform="translate(-59.944 -10.595)"/><path class="a" d="M291.9,372.313a3.762,3.762,0,0,0,1.271.874,4.26,4.26,0,0,0,1.686.318,4.483,4.483,0,0,0,1.822-.357,5.143,5.143,0,0,0,1.368-.855v-3.159h-3.28v.795h2.418v1.983a3.772,3.772,0,0,1-1.01.565,3.516,3.516,0,0,1-1.283.233,3.262,3.262,0,0,1-1.305-.251,2.875,2.875,0,0,1-.988-.693,3.1,3.1,0,0,1-.63-1.052,3.851,3.851,0,0,1-.221-1.324,3.53,3.53,0,0,1,.227-1.268,3.3,3.3,0,0,1,.624-1.04,2.959,2.959,0,0,1,.954-.706,2.831,2.831,0,0,1,1.215-.261,3.961,3.961,0,0,1,.766.068,3.332,3.332,0,0,1,.636.188,3.176,3.176,0,0,1,.539.283,4.185,4.185,0,0,1,.477.368l.578-.68a5.561,5.561,0,0,0-.607-.449,3.637,3.637,0,0,0-.67-.334,3.91,3.91,0,0,0-.772-.2,5.623,5.623,0,0,0-.913-.068,3.838,3.838,0,0,0-2.883,1.237,4.1,4.1,0,0,0-.812,1.317,4.307,4.307,0,0,0-.289,1.566,4.568,4.568,0,0,0,.278,1.6A3.782,3.782,0,0,0,291.9,372.313Z" transform="translate(-38.608 -35.644)"/><path class="a" d="M310.7,373.5a4.02,4.02,0,0,0,1.657-.335,3.961,3.961,0,0,0,1.283-.9,4.1,4.1,0,0,0,.828-1.31,4.224,4.224,0,0,0,.295-1.573,4.294,4.294,0,0,0-.289-1.571,3.916,3.916,0,0,0-2.1-2.2,4.289,4.289,0,0,0-3.309.006,3.949,3.949,0,0,0-1.283.9,4.105,4.105,0,0,0-.828,1.311,4.22,4.22,0,0,0-.295,1.571,4.3,4.3,0,0,0,.289,1.573,3.905,3.905,0,0,0,2.1,2.2A4.048,4.048,0,0,0,310.7,373.5Zm-2.877-2.838a3.529,3.529,0,0,1-.233-1.283,3.482,3.482,0,0,1,.233-1.276,3.265,3.265,0,0,1,.641-1.039,2.949,2.949,0,0,1,.982-.7,3.044,3.044,0,0,1,1.254-.256,2.989,2.989,0,0,1,1.254.261,3.116,3.116,0,0,1,1.646,1.748,3.53,3.53,0,0,1,.233,1.282,3.494,3.494,0,0,1-.233,1.278,3.262,3.262,0,0,1-.641,1.038,2.957,2.957,0,0,1-.982.7,3.044,3.044,0,0,1-1.254.256,3,3,0,0,1-1.255-.261,3.12,3.12,0,0,1-1.646-1.749Z" transform="translate(-44.269 -35.644)"/><path class="a" d="M328.937,373.3a2.8,2.8,0,0,0,.912-.426,1.886,1.886,0,0,0,.584-.687,2.034,2.034,0,0,0,.2-.919,1.835,1.835,0,0,0-.136-.727,1.735,1.735,0,0,0-.362-.545,2.279,2.279,0,0,0-.539-.391,3.507,3.507,0,0,0-.663-.266,2.6,2.6,0,0,0,.458-.256,1.864,1.864,0,0,0,.4-.38,1.843,1.843,0,0,0,.289-.522,2.013,2.013,0,0,0,.108-.692,1.842,1.842,0,0,0-.182-.823,1.724,1.724,0,0,0-.521-.624,2.553,2.553,0,0,0-.816-.4,3.721,3.721,0,0,0-1.064-.142h-3.377v7.945h3.524A4.44,4.44,0,0,0,328.937,373.3Zm-3.806-7h2.411a2.078,2.078,0,0,1,1.3.354,1.151,1.151,0,0,1,.452.958,1.233,1.233,0,0,1-.509,1.071,2.2,2.2,0,0,1-1.314.366h-2.343Zm0,3.542h2.5a2.821,2.821,0,0,1,1.574.359,1.157,1.157,0,0,1,.532,1.019,1.232,1.232,0,0,1-.521,1.06,2.4,2.4,0,0,1-1.427.375h-2.661Z" transform="translate(-50.548 -35.719)"/><rect class="a" width="0.897" height="7.945" transform="translate(283.255 329.779)"/><path class="a" d="M351.9,366.316V365.5h-5.743v7.945h5.8v-.817h-4.9v-2.78h4.336v-.817h-4.336v-2.713Z" transform="translate(-58.38 -35.719)"/><path class="a" d="M365.68,369.445a2.036,2.036,0,0,0,.448-.681,2.341,2.341,0,0,0,.159-.892,2.262,2.262,0,0,0-.2-.97,2.147,2.147,0,0,0-.579-.75,2.658,2.658,0,0,0-.9-.483,3.866,3.866,0,0,0-1.186-.171H360v7.945h.9v-3.086h2.271l2.3,3.086h1.1l-2.44-3.244a3.183,3.183,0,0,0,.862-.272A2.547,2.547,0,0,0,365.68,369.445Zm-1.519,0a2.814,2.814,0,0,1-.819.114H360.9v-3.235h2.458a2.392,2.392,0,0,1,1.5.416,1.392,1.392,0,0,1,.535,1.167,1.533,1.533,0,0,1-.154.694,1.489,1.489,0,0,1-.427.519A2.025,2.025,0,0,1,364.162,369.448Z" transform="translate(-63.328 -35.719)"/><path class="a" d="M380.786,373.444h.715V365.5h-.874v6.368l-5.005-6.368h-.84v7.945h.874v-6.515Z" transform="translate(-68.61 -35.719)"/><path class="a" d="M397.174,366.507a3.946,3.946,0,0,0-1.277-.891,4.288,4.288,0,0,0-3.308.006,3.936,3.936,0,0,0-1.283.9,4.108,4.108,0,0,0-.829,1.311,4.22,4.22,0,0,0-.295,1.571,4.289,4.289,0,0,0,.29,1.573,3.907,3.907,0,0,0,2.1,2.2,4.288,4.288,0,0,0,3.308-.006,3.947,3.947,0,0,0,1.283-.9,4.086,4.086,0,0,0,.828-1.31,4.225,4.225,0,0,0,.3-1.573,4.3,4.3,0,0,0-.29-1.571A3.953,3.953,0,0,0,397.174,366.507Zm-.051,4.177a3.251,3.251,0,0,1-.641,1.038,2.961,2.961,0,0,1-.981.7,3.047,3.047,0,0,1-1.254.256,3,3,0,0,1-1.254-.261,3.114,3.114,0,0,1-1.646-1.749,3.515,3.515,0,0,1-.233-1.283,3.469,3.469,0,0,1,.233-1.276,3.266,3.266,0,0,1,.641-1.039,2.946,2.946,0,0,1,.981-.7,3.049,3.049,0,0,1,1.254-.256,2.986,2.986,0,0,1,1.254.261,3.11,3.11,0,0,1,1.646,1.748,3.531,3.531,0,0,1,.233,1.282A3.5,3.5,0,0,1,397.123,370.685Z" transform="translate(-74.113 -35.644)"/><path class="a" d="M420.873,372.3a3.686,3.686,0,0,0,.868-1.265,4.029,4.029,0,0,0,.307-1.573,3.988,3.988,0,0,0-.307-1.566,3.706,3.706,0,0,0-.868-1.26,4.025,4.025,0,0,0-1.339-.834,4.686,4.686,0,0,0-1.708-.3h-2.758v7.945h2.758a4.621,4.621,0,0,0,1.708-.306A4.123,4.123,0,0,0,420.873,372.3Zm-3.048.317h-1.862v-6.288h1.862a3.639,3.639,0,0,1,1.362.244,3.033,3.033,0,0,1,1.039.67,2.972,2.972,0,0,1,.658,1,3.289,3.289,0,0,1,.233,1.236,3.235,3.235,0,0,1-.233,1.238,3,3,0,0,1-.658.993,2.965,2.965,0,0,1-1.039.664A3.717,3.717,0,0,1,417.825,372.615Z" transform="translate(-83.005 -35.719)"/><path class="a" d="M436.674,372.626h-4.9v-2.78h4.336v-.817H431.77v-2.713h4.847V365.5h-5.744v7.945h5.8Z" transform="translate(-88.654 -35.719)"/><path class="a" d="M452.928,365.5h-.9v7.945H457.4v-.828h-4.472Z" transform="translate(-96.214 -35.719)"/><path class="a" d="M465.779,371.312H470.1l.931,2.1H472l-3.621-8h-.84l-3.621,8h.92Zm2.168-4.846,1.8,4.051h-3.62Z" transform="translate(-100.461 -35.688)"/><path class="a" d="M194.83,401.082a1.8,1.8,0,0,1-1.361-.819l-2.443-3.066a4.208,4.208,0,0,0-.951-.926,1.684,1.684,0,0,0-.9-.255v-.082a3.316,3.316,0,0,0,2.042-.828,2.626,2.626,0,0,0,.877-2.09,2.579,2.579,0,0,0-1.115-2.254,5.181,5.181,0,0,0-3.016-.779q-.345,0-1.41.049t-1.722.049a15.1,15.1,0,0,1-1.886-.1c-.076-.01-.129.074-.156.254s-.008.281.057.3a2.282,2.282,0,0,1,1.017.516,1.475,1.475,0,0,1,.344,1.091v7.312a1.389,1.389,0,0,1-.344,1.057,1.857,1.857,0,0,1-1.017.418c-.044,0-.066.047-.066.139a.819.819,0,0,0,.049.279c.033.093.071.139.114.139h4.968c.044,0,.079-.047.107-.139a1,1,0,0,0,.04-.279c0-.093-.016-.139-.049-.139a3.444,3.444,0,0,1-1.386-.4,1.174,1.174,0,0,1-.451-1.074v-3.181a5.4,5.4,0,0,1,1.59.222,2.355,2.355,0,0,1,1.1.844l2.525,3.245a2.937,2.937,0,0,0,1.1.886,2.542,2.542,0,0,0,1.213.262,5.777,5.777,0,0,0,1.132-.181c.055-.022.084-.107.09-.254S194.9,401.082,194.83,401.082Zm-8.181-5.558h-.476v-3.377a1.445,1.445,0,0,1,.287-1.009,1.331,1.331,0,0,1,.992-.3,2.583,2.583,0,0,1,1.861.68,2.557,2.557,0,0,1,.713,1.943,1.725,1.725,0,0,1-.746,1.631A5.646,5.646,0,0,1,186.649,395.524Z" transform="translate(0 -44.468)"/><path class="a" d="M215.159,398.77c-.159-.043-.265-.016-.319.082a4.207,4.207,0,0,1-3.853,1.754,2.393,2.393,0,0,1-1.378-.287,1.171,1.171,0,0,1-.377-.992v-2.754a.5.5,0,0,1,.131-.4.65.65,0,0,1,.409-.107H210a2.531,2.531,0,0,1,2.164.738.4.4,0,0,0,.3.2q.156,0,.255-.213l.934-2.066c.066-.152.04-.248-.074-.286a.277.277,0,0,0-.3.073,4.867,4.867,0,0,1-3.148.738h-.361a.642.642,0,0,1-.409-.107.5.5,0,0,1-.131-.4v-2.672a1.054,1.054,0,0,1,.336-.893,2.045,2.045,0,0,1,1.188-.254,4.718,4.718,0,0,1,2.017.3,1.538,1.538,0,0,1,.771.96c.033.109.123.163.271.163s.232-.054.254-.163l.394-1.557a.8.8,0,0,0,.024-.46q-.058-.18-.336-.181l-1.213.041q-.755.024-1.4.041t-1.3.017q-3.361,0-4.263-.1-.1-.015-.139.263c-.027.186-.008.284.057.295a2.371,2.371,0,0,1,1.017.484,1.3,1.3,0,0,1,.361,1.024v7.279a2.054,2.054,0,0,1-.107.721.886.886,0,0,1-.4.452,2.862,2.862,0,0,1-.492.238q-.2.066-.688.2c-.066.022-.085.129-.058.319s.08.282.156.271q1-.1,4.787-.1,1.36,0,3.2.1a1.461,1.461,0,0,0,1.221-.877,3.232,3.232,0,0,0,.517-1.615C215.4,398.9,215.317,398.815,215.159,398.77Z" transform="translate(-8.122 -44.468)"/><path class="a" d="M234.243,390.827a6.012,6.012,0,0,0-3.361-.844q-.378,0-1.394.049t-1.672.049a15.111,15.111,0,0,1-1.886-.1c-.076-.01-.128.074-.156.254s-.008.281.057.3a2.278,2.278,0,0,1,1.017.516,1.475,1.475,0,0,1,.344,1.091v7.312a1.389,1.389,0,0,1-.344,1.057,1.854,1.854,0,0,1-1.017.418c-.044,0-.066.047-.066.139a.835.835,0,0,0,.049.279c.033.093.071.139.114.139H230.9c.044,0,.079-.047.107-.139a1,1,0,0,0,.041-.279c0-.093-.017-.139-.049-.139a3.437,3.437,0,0,1-1.386-.4,1.174,1.174,0,0,1-.451-1.074V397.1a7.286,7.286,0,0,0,4.583-.525,3.236,3.236,0,0,0,1.779-3.082A2.964,2.964,0,0,0,234.243,390.827Zm-1.894,5.189a5.335,5.335,0,0,1-3.189.279v-4.148a1.465,1.465,0,0,1,.279-1.025,1.433,1.433,0,0,1,1.033-.286,2.894,2.894,0,0,1,2.115.8,2.978,2.978,0,0,1,.82,2.229A2.22,2.22,0,0,1,232.349,396.016Z" transform="translate(-15.361 -44.468)"/><path class="a" d="M253.925,386.386l2.148-1.623q.18-.13-.082-.5a2.064,2.064,0,0,0-.664-.6q-.4-.228-.533-.032L253.3,385.8q-.115.165.172.443T253.925,386.386Z" transform="translate(-25.19 -42.166)"/><path class="a" d="M258.056,390.034h-3.689c-.044,0-.08.047-.107.139a1,1,0,0,0-.04.279c0,.093.016.139.049.139a1.97,1.97,0,0,1,1.049.418,1.349,1.349,0,0,1,.361,1.057V397.3a3.3,3.3,0,0,1-.9,2.5,3.212,3.212,0,0,1-2.312.86,2.988,2.988,0,0,1-2.222-.853,3.419,3.419,0,0,1-.844-2.508v-5.231a1.386,1.386,0,0,1,.352-1.09,1.806,1.806,0,0,1,.96-.385c.043,0,.066-.046.066-.139a.838.838,0,0,0-.049-.279c-.033-.093-.071-.139-.114-.139h-4.476c-.044,0-.082.047-.115.139a.837.837,0,0,0-.049.279c0,.093.022.139.066.139a1.675,1.675,0,0,1,.992.409,1.44,1.44,0,0,1,.336,1.066v5.148a4.841,4.841,0,0,0,.434,2.107,3.636,3.636,0,0,0,1.156,1.427,5.282,5.282,0,0,0,1.557.77,5.994,5.994,0,0,0,1.754.255,4.613,4.613,0,0,0,3.3-1.189,4.427,4.427,0,0,0,1.262-3.386v-5.132a1.386,1.386,0,0,1,.353-1.09,1.8,1.8,0,0,1,.959-.385c.044,0,.066-.046.066-.139a.837.837,0,0,0-.049-.279C258.122,390.081,258.089,390.034,258.056,390.034Z" transform="translate(-22.582 -44.487)"/><path class="a" d="M276.611,395.245v-.1a2.631,2.631,0,0,0,1.492-.845,2.3,2.3,0,0,0,.574-1.631,2.267,2.267,0,0,0-1.107-1.992,5.047,5.047,0,0,0-2.763-.7q-.295,0-1.287.049t-1.713.049a16.589,16.589,0,0,1-1.984-.1q-.1-.015-.139.263c-.027.186-.008.284.057.295a2.371,2.371,0,0,1,1.017.484,1.3,1.3,0,0,1,.361,1.024v7.279a2.054,2.054,0,0,1-.107.721.886.886,0,0,1-.4.452,2.864,2.864,0,0,1-.492.238q-.2.066-.688.2c-.066.022-.085.129-.058.319s.08.282.156.271a25.62,25.62,0,0,1,2.574-.1q.656,0,1.615.049t1.3.049a5.569,5.569,0,0,0,3.328-.91,2.855,2.855,0,0,0,1.262-2.435,2.731,2.731,0,0,0-.893-2.122A3.033,3.033,0,0,0,276.611,395.245Zm-3.524-3.2a1.365,1.365,0,0,1,.254-.951,1.249,1.249,0,0,1,.91-.262,2.526,2.526,0,0,1,1.729.581,2.136,2.136,0,0,1,.665,1.7,1.645,1.645,0,0,1-1.87,1.853h-1.688Zm3.746,8.157a3.2,3.2,0,0,1-1.861.467,2.5,2.5,0,0,1-1.459-.32,1.2,1.2,0,0,1-.426-1.025v-3.541h1.688a2.737,2.737,0,0,1,1.96.722,2.663,2.663,0,0,1,.762,2.033A1.9,1.9,0,0,1,276.833,400.205Z" transform="translate(-30.94 -44.468)"/><path class="a" d="M299.728,398.789c-.159-.043-.265-.016-.319.082a4.207,4.207,0,0,1-3.853,1.754,2.391,2.391,0,0,1-1.377-.287,1.172,1.172,0,0,1-.377-.992v-7.279a1.366,1.366,0,0,1,.361-1.09,1.871,1.871,0,0,1,.983-.385c.033,0,.052-.046.058-.139a.715.715,0,0,0-.041-.279c-.033-.093-.066-.139-.1-.139h-4.525c-.033,0-.066.047-.1.139a.838.838,0,0,0-.049.279c0,.093.022.139.066.139a3.3,3.3,0,0,1,.681.172,1.056,1.056,0,0,1,.483.434,1.568,1.568,0,0,1,.213.868v7.279a2.039,2.039,0,0,1-.107.721.881.881,0,0,1-.4.452,2.842,2.842,0,0,1-.492.238q-.2.066-.689.2c-.066.022-.084.129-.057.319s.08.282.156.271q1-.1,4.787-.1,1.36,0,3.2.1a1.461,1.461,0,0,0,1.221-.877,3.232,3.232,0,0,0,.517-1.615C299.966,398.92,299.886,398.833,299.728,398.789Z" transform="translate(-38.342 -44.487)"/><path class="a" d="M314.509,401.511c.043,0,.082-.047.114-.139a.834.834,0,0,0,.049-.279c0-.093-.022-.139-.066-.139a1.906,1.906,0,0,1-1-.385,1.37,1.37,0,0,1-.361-1.091v-7.411a1.368,1.368,0,0,1,.361-1.09,1.9,1.9,0,0,1,1-.385c.044,0,.066-.046.066-.139a.837.837,0,0,0-.049-.279c-.033-.093-.071-.139-.114-.139h-4.493c-.044,0-.082.047-.114.139a.838.838,0,0,0-.049.279c0,.093.022.139.066.139a1.855,1.855,0,0,1,1.017.418,1.387,1.387,0,0,1,.344,1.057v7.411a1.389,1.389,0,0,1-.344,1.057,1.854,1.854,0,0,1-1.017.418c-.044,0-.066.047-.066.139a.835.835,0,0,0,.049.279c.033.093.071.139.114.139Z" transform="translate(-45.409 -44.487)"/><path class="a" d="M330.8,401.02a4.4,4.4,0,0,0,1.7-1.295c.043-.076.008-.18-.107-.312s-.205-.175-.271-.131a4.535,4.535,0,0,1-1.418.566,6.141,6.141,0,0,1-1.221.206,5.113,5.113,0,0,1-1.746-.312,5.727,5.727,0,0,1-1.615-.91,4.282,4.282,0,0,1-1.222-1.64,5.721,5.721,0,0,1-.467-2.369,4.243,4.243,0,0,1,.886-2.853,3.244,3.244,0,0,1,2.607-1.033,4.849,4.849,0,0,1,1.484.222,4.769,4.769,0,0,1,1.074.459,6.706,6.706,0,0,0,.705.393.555.555,0,0,0,.524.041,1.12,1.12,0,0,0,.361-.623l.213-.639q.1-.28-.344-.55a4.072,4.072,0,0,0-1.254-.442,8.35,8.35,0,0,0-1.746-.173,7.094,7.094,0,0,0-2.91.566,5.075,5.075,0,0,0-1.992,1.492,6.6,6.6,0,0,0-1.074,1.983,6.826,6.826,0,0,0-.352,2.173,5.738,5.738,0,0,0,.409,2.2,4.809,4.809,0,0,0,1.074,1.648,6.432,6.432,0,0,0,1.525,1.1,7.066,7.066,0,0,0,1.729.648,7.855,7.855,0,0,0,1.738.2A4.782,4.782,0,0,0,330.8,401.02Z" transform="translate(-49.967 -44.341)"/><path class="a" d="M343.287,400.417a1.7,1.7,0,0,1-.9.427q-.146.033-.123.295c.017.175.074.263.172.263h3.541c.109,0,.172-.088.189-.263s-.03-.273-.139-.295a2.915,2.915,0,0,1-.549-.123.924.924,0,0,1-.369-.255.689.689,0,0,1-.147-.516,2.612,2.612,0,0,1,.229-.845l.164-.409a.573.573,0,0,1,.32-.352,1.913,1.913,0,0,1,.614-.074h3.344a1.918,1.918,0,0,1,.615.074.572.572,0,0,1,.319.352l.181.409a3.073,3.073,0,0,1,.246.845.665.665,0,0,1-.123.516.934.934,0,0,1-.328.255,2.106,2.106,0,0,1-.451.123q-.132.033-.123.295c.006.175.063.263.172.263h4.328c.1,0,.156-.088.172-.263s-.03-.273-.139-.295a1.527,1.527,0,0,1-.869-.427,4.573,4.573,0,0,1-.771-1.328l-4-9.329q-.034-.082-.615.041t-.582.205a7.914,7.914,0,0,1-.836,2.738l-2.771,6.361A4.28,4.28,0,0,1,343.287,400.417Zm6.607-3.328c.033.076.03.134-.008.172a.269.269,0,0,1-.148.073,1.255,1.255,0,0,1-.221.017h-3.1a.746.746,0,0,1-.328-.057c-.076-.039-.093-.107-.049-.205l1.935-4.591" transform="translate(-56.989 -44.377)"/><path class="a" d="M375.122,400.049a.881.881,0,0,1-.4.452,2.837,2.837,0,0,1-.492.238q-.2.066-.689.2c-.066.022-.084.129-.057.319s.08.282.156.271a25.62,25.62,0,0,1,2.574-.1q.656,0,1.664.049t1.353.049a6.351,6.351,0,0,0,3.344-.861,5.428,5.428,0,0,0,2.107-2.206,6.436,6.436,0,0,0,.681-2.951,5.275,5.275,0,0,0-1.607-3.984,6.251,6.251,0,0,0-4.509-1.541q-.361,0-1.467.049t-1.795.049a17.277,17.277,0,0,1-2.049-.1c-.066-.01-.112.077-.139.263s-.008.284.057.295a2.375,2.375,0,0,1,1.017.484,1.3,1.3,0,0,1,.361,1.024v7.279A2.039,2.039,0,0,1,375.122,400.049Zm2.074-8a1.113,1.113,0,0,1,.344-.917,1.939,1.939,0,0,1,1.2-.279,4.111,4.111,0,0,1,3.4,1.582,6.254,6.254,0,0,1,1.254,4.009q0,4.214-4,4.213a3.242,3.242,0,0,1-1.681-.328,1.1,1.1,0,0,1-.517-1Z" transform="translate(-68.142 -44.468)"/><path class="a" d="M397.508,395.692a5.761,5.761,0,0,0,5.919,5.936,5.625,5.625,0,0,0,4.295-1.763,6.074,6.074,0,0,0,1.656-4.32,5.734,5.734,0,0,0-5.919-5.919,5.625,5.625,0,0,0-4.295,1.763A6.052,6.052,0,0,0,397.508,395.692Zm2.279-2.836a3.041,3.041,0,0,1,.828-1.262,3.57,3.57,0,0,1,1.066-.648,3.23,3.23,0,0,1,1.14-.205,4.124,4.124,0,0,1,3.213,1.648,6.1,6.1,0,0,1,1.393,4.074,5.459,5.459,0,0,1-.312,1.927,3,3,0,0,1-.835,1.27,3.646,3.646,0,0,1-1.075.648,3.226,3.226,0,0,1-1.139.205,4.1,4.1,0,0,1-3.2-1.647,6.136,6.136,0,0,1-1.386-4.091A5.391,5.391,0,0,1,399.787,392.856Z" transform="translate(-76.731 -44.341)"/><path class="a" d="M432.4,399.378a1.254,1.254,0,0,1-1.148,1.476c-.033.022-.049.074-.049.156a.791.791,0,0,0,.049.262c.033.093.066.139.1.139h4.279c.033,0,.066-.047.1-.139a.851.851,0,0,0,.049-.279c0-.093-.022-.139-.066-.139a1.633,1.633,0,0,1-.951-.377,1.574,1.574,0,0,1-.394-1.1l-.524-9.411c-.012-.143-.131-.213-.361-.213a.47.47,0,0,0-.459.213l-4.411,8.885-4.754-8.885a.494.494,0,0,0-.459-.213c-.219,0-.333.071-.344.213l-.524,9.411a1.576,1.576,0,0,1-.393,1.1,1.659,1.659,0,0,1-.967.377c-.044,0-.066.047-.066.139a.833.833,0,0,0,.049.279c.033.093.071.139.115.139h3.393c.033,0,.066-.047.1-.139a.834.834,0,0,0,.049-.279c0-.093-.022-.139-.066-.139a1.236,1.236,0,0,1-1.148-1.476l.246-5.591,3.787,7.181a.521.521,0,0,0,.508.295c.393,0,.606-.1.639-.295a7.18,7.18,0,0,1,.656-1.688l2.656-5.411Z" transform="translate(-85.163 -44.387)"/><path class="a" d="M452.59,390.977a1.9,1.9,0,0,1,1-.385c.043,0,.065-.046.065-.139a.837.837,0,0,0-.049-.279c-.033-.093-.071-.139-.115-.139H449c-.044,0-.082.047-.115.139a.854.854,0,0,0-.049.279c0,.093.022.139.066.139a1.859,1.859,0,0,1,1.017.418,1.387,1.387,0,0,1,.344,1.057v7.411a1.389,1.389,0,0,1-.344,1.057,1.859,1.859,0,0,1-1.017.418c-.044,0-.066.047-.066.139a.851.851,0,0,0,.049.279c.033.093.071.139.115.139h4.492c.044,0,.082-.047.115-.139a.834.834,0,0,0,.049-.279c0-.093-.022-.139-.065-.139a1.909,1.909,0,0,1-1-.385,1.37,1.37,0,0,1-.361-1.091v-7.411A1.368,1.368,0,0,1,452.59,390.977Z" transform="translate(-95.072 -44.487)"/><path class="a" d="M473.55,390.034h-3.885q-.116,0-.156.262c-.028.175-.008.273.057.3.307.076.517.134.632.172a2.728,2.728,0,0,1,.459.221.865.865,0,0,1,.393.434,1.886,1.886,0,0,1,.107.681v6.165l-7.64-8.083a.5.5,0,0,0-.393-.148H461.91a.282.282,0,0,0-.246.115.411.411,0,0,0-.082.246.1.1,0,0,0,.024.049c.017.022.039.049.066.082s.06.071.1.115.074.087.106.13a3.8,3.8,0,0,1,.607,2.3v6.361a1.414,1.414,0,0,1-.361,1.066,3.163,3.163,0,0,1-.983.459c-.076.022-.1.12-.066.295s.082.263.148.263h3.886c.076,0,.128-.088.156-.263s.008-.273-.058-.295c-.295-.076-.513-.139-.656-.189a2.244,2.244,0,0,1-.467-.238.9.9,0,0,1-.361-.426,1.8,1.8,0,0,1-.107-.672V393.2l7.8,8.164a.81.81,0,0,0,.607.311.792.792,0,0,0,.37-.073.182.182,0,0,0,.089-.238,13.4,13.4,0,0,1-.2-2.886V392.1a2.2,2.2,0,0,1,.089-.681.827.827,0,0,1,.337-.434,2.429,2.429,0,0,1,.385-.221q.14-.058.533-.172c.066-.023.085-.12.057-.3S473.616,390.034,473.55,390.034Z" transform="translate(-99.44 -44.487)"/><path class="a" d="M489.376,390.977a1.9,1.9,0,0,1,1-.385c.043,0,.065-.046.065-.139a.838.838,0,0,0-.049-.279c-.033-.093-.071-.139-.114-.139h-4.493c-.044,0-.082.047-.114.139a.838.838,0,0,0-.049.279c0,.093.023.139.066.139a1.857,1.857,0,0,1,1.017.418,1.387,1.387,0,0,1,.344,1.057v7.411a1.389,1.389,0,0,1-.344,1.057,1.857,1.857,0,0,1-1.017.418c-.043,0-.066.047-.066.139a.835.835,0,0,0,.049.279c.033.093.071.139.114.139h4.493c.043,0,.082-.047.114-.139a.835.835,0,0,0,.049-.279c0-.093-.022-.139-.065-.139a1.909,1.909,0,0,1-1-.385,1.37,1.37,0,0,1-.361-1.091v-7.411A1.368,1.368,0,0,1,489.376,390.977Z" transform="translate(-108.217 -44.487)"/><path class="a" d="M507.887,399.283a4.53,4.53,0,0,1-1.418.566,6.155,6.155,0,0,1-1.221.206,5.117,5.117,0,0,1-1.747-.312,5.727,5.727,0,0,1-1.615-.91,4.274,4.274,0,0,1-1.221-1.64,5.721,5.721,0,0,1-.468-2.369,4.246,4.246,0,0,1,.886-2.853,3.246,3.246,0,0,1,2.607-1.033,4.842,4.842,0,0,1,1.483.222,4.756,4.756,0,0,1,1.074.459,6.709,6.709,0,0,0,.705.393.555.555,0,0,0,.524.041,1.12,1.12,0,0,0,.361-.623l.213-.639q.1-.28-.344-.55a4.072,4.072,0,0,0-1.254-.442,8.352,8.352,0,0,0-1.747-.173,7.093,7.093,0,0,0-2.909.566,5.075,5.075,0,0,0-1.992,1.492,6.619,6.619,0,0,0-1.075,1.983,6.845,6.845,0,0,0-.352,2.173,5.726,5.726,0,0,0,.41,2.2,4.809,4.809,0,0,0,1.074,1.648,6.414,6.414,0,0,0,1.524,1.1,7.076,7.076,0,0,0,1.729.648,7.857,7.857,0,0,0,1.738.2,4.78,4.78,0,0,0,1.713-.607,4.386,4.386,0,0,0,1.7-1.295q.066-.114-.107-.312T507.887,399.283Z" transform="translate(-112.775 -44.341)"/><path class="a" d="M530.271,400.844a1.525,1.525,0,0,1-.868-.427,4.555,4.555,0,0,1-.771-1.328l-4-9.329q-.033-.082-.615.041t-.582.205a7.913,7.913,0,0,1-.836,2.738l-2.771,6.361a4.265,4.265,0,0,1-.771,1.312,1.7,1.7,0,0,1-.9.427c-.1.022-.14.12-.123.295s.074.263.172.263h3.542c.109,0,.172-.088.189-.263s-.031-.273-.14-.295a2.907,2.907,0,0,1-.549-.123.916.916,0,0,1-.369-.255.687.687,0,0,1-.148-.516,2.645,2.645,0,0,1,.229-.845l.164-.409a.573.573,0,0,1,.32-.352,1.913,1.913,0,0,1,.614-.074H525.4a1.916,1.916,0,0,1,.614.074.573.573,0,0,1,.32.352l.181.409a3.093,3.093,0,0,1,.246.845.663.663,0,0,1-.123.516.928.928,0,0,1-.328.255,2.1,2.1,0,0,1-.451.123c-.088.022-.129.12-.123.295s.062.263.172.263h4.329c.1,0,.156-.088.172-.263S530.381,400.866,530.271,400.844Zm-4.614-3.582a.274.274,0,0,1-.148.073,1.247,1.247,0,0,1-.22.017h-3.1a.745.745,0,0,1-.327-.057c-.077-.039-.093-.107-.049-.205l1.934-4.591,1.918,4.591C525.7,397.166,525.694,397.223,525.657,397.262Z" transform="translate(-119.797 -44.377)"/><path class="a" d="M554.165,390.034h-3.886q-.115,0-.156.262c-.028.175-.008.273.057.3.307.076.517.134.632.172a2.708,2.708,0,0,1,.459.221.859.859,0,0,1,.393.434,1.886,1.886,0,0,1,.107.681v6.165l-7.64-8.083a.5.5,0,0,0-.393-.148h-1.213a.282.282,0,0,0-.245.115.41.41,0,0,0-.082.246.093.093,0,0,0,.024.049c.016.022.038.049.066.082s.06.071.1.115.073.087.106.13a3.8,3.8,0,0,1,.607,2.3v6.361a1.414,1.414,0,0,1-.361,1.066,3.157,3.157,0,0,1-.983.459q-.115.033-.066.295c.033.175.082.263.147.263h3.886c.076,0,.128-.088.156-.263s.008-.273-.058-.295c-.295-.076-.513-.139-.656-.189a2.242,2.242,0,0,1-.467-.238.9.9,0,0,1-.361-.426,1.8,1.8,0,0,1-.107-.672V393.2l7.8,8.164a.81.81,0,0,0,.607.311.792.792,0,0,0,.369-.073.182.182,0,0,0,.09-.238,13.343,13.343,0,0,1-.2-2.886V392.1a2.223,2.223,0,0,1,.089-.681.828.828,0,0,1,.337-.434,2.4,2.4,0,0,1,.386-.221q.139-.058.533-.172c.065-.023.084-.12.057-.3S554.23,390.034,554.165,390.034Z" transform="translate(-128.246 -44.487)"/><path class="a" d="M577.364,400.844a1.523,1.523,0,0,1-.868-.427,4.57,4.57,0,0,1-.771-1.328l-4-9.329c-.022-.055-.228-.041-.615.041s-.582.15-.582.205a7.914,7.914,0,0,1-.836,2.738l-2.771,6.361a4.279,4.279,0,0,1-.771,1.312,1.7,1.7,0,0,1-.9.427c-.1.022-.139.12-.123.295s.075.263.172.263h3.542c.109,0,.172-.088.189-.263s-.031-.273-.14-.295a2.916,2.916,0,0,1-.549-.123.914.914,0,0,1-.368-.255.687.687,0,0,1-.148-.516,2.629,2.629,0,0,1,.229-.845l.164-.409a.573.573,0,0,1,.32-.352,1.913,1.913,0,0,1,.614-.074H572.5a1.916,1.916,0,0,1,.614.074.573.573,0,0,1,.32.352l.18.409a3.073,3.073,0,0,1,.246.845.665.665,0,0,1-.123.516.927.927,0,0,1-.328.255,2.107,2.107,0,0,1-.451.123c-.088.022-.129.12-.123.295s.062.263.172.263h4.328c.1,0,.156-.088.172-.263S577.473,400.866,577.364,400.844Zm-4.614-3.582a.274.274,0,0,1-.148.073,1.254,1.254,0,0,1-.221.017h-3.1a.746.746,0,0,1-.328-.057c-.076-.039-.093-.107-.049-.205l1.934-4.591,1.918,4.591C572.79,397.166,572.787,397.223,572.75,397.262Z" transform="translate(-136.625 -44.377)"/><rect class="a" width="59.251" height="2.804" transform="translate(282.085 366.787)"/></g></svg>