<svg xmlns="http://www.w3.org/2000/svg" width="24" height="16" viewBox="0 0 24 16">
  <path id="mailbox" d="M18,64H6a6,6,0,0,0-6,6v8.667A1.333,1.333,0,0,0,1.333,80H22.667A1.333,1.333,0,0,0,24,78.667V70A6,6,0,0,0,18,64ZM10,78H2V70a4,4,0,0,1,8,0Zm12,0H12V70a5.955,5.955,0,0,0-1.557-4H18a4,4,0,0,1,4,4Zm-2.667-8.667h-5a.333.333,0,0,0-.333.333V71a.333.333,0,0,0,.333.333h3v1.333a.667.667,0,0,0,.667.667h1.333A.667.667,0,0,0,20,72.667V70A.667.667,0,0,0,19.333,69.333Zm-11.667,0H4.333A.333.333,0,0,0,4,69.667v2A.333.333,0,0,0,4.333,72H7.667A.333.333,0,0,0,8,71.667v-2A.333.333,0,0,0,7.667,69.333Z" transform="translate(0 -64)" fill="#8e8e8e"/>
</svg>
