<svg xmlns="http://www.w3.org/2000/svg" width="24" height="24" viewBox="0 0 24 24">
  <path id="chart-pie-alt" d="M21.62,13.5H10.5V2.377a.757.757,0,0,0-.738-.76.707.707,0,0,0-.1.007A11.241,11.241,0,0,0,0,13.128,11.389,11.389,0,0,0,10.869,23.994c.126,0,.253.006.378.006a11.241,11.241,0,0,0,11.126-9.664A.752.752,0,0,0,21.62,13.5ZM11.247,21.75c-.1,0-.2,0-.3-.005a9.124,9.124,0,0,1-8.69-8.69,8.979,8.979,0,0,1,6-8.782V15.75H19.721A9.037,9.037,0,0,1,11.247,21.75ZM13.535,0l-.049,0a.757.757,0,0,0-.739.761V11.25H23.236A.755.755,0,0,0,24,10.462,11.277,11.277,0,0,0,13.535,0Z" transform="translate(0.003)" fill="#1460b8"/>
</svg>
