<svg width="50" height="41" viewBox="0 0 50 41" fill="none" xmlns="http://www.w3.org/2000/svg">
<path d="M49.274 36.9969L43.1655 30.8156C44.3097 29.2156 44.9428 27.2859 44.9428 25.2C44.9428 19.6774 40.5181 15.2 35.0604 15.2C29.6027 15.2 25.1781 19.6774 25.1781 25.2C25.1781 30.7227 29.6027 35.2 35.0604 35.2C37.1195 35.2 39.028 34.5601 40.6115 33.4695L46.72 39.6508C47.0814 40.0203 47.5523 40.2 48.031 40.2C48.5097 40.2 48.9791 40.0169 49.3412 39.6507C50.0615 38.9188 50.0615 37.7313 49.274 36.9969ZM35.0604 31.45C31.6549 31.45 28.8839 28.6461 28.8839 25.2C28.8839 21.7539 31.6549 18.95 35.0604 18.95C38.466 18.95 41.2369 21.7539 41.2369 25.2C41.2369 28.6461 38.4652 31.45 35.0604 31.45ZM9.04974 3.95001H28.6678L31.3545 6.60157V12.7H35.0612L35.0604 6.60157C35.0604 5.60704 34.67 4.65314 33.9749 3.95001L31.3545 1.29845C30.6597 0.59509 29.7178 0.200012 28.7372 0.200012H9.04974C7.0725 0.200012 5.41412 1.87814 5.41334 3.94845L5.4135 10.3766C5.41334 10.3766 5.41365 10.3766 5.4135 10.3766L5.41334 12.7H9.11923L9.04974 3.95001ZM10.3545 36.45V28.95H23.3328C22.9605 27.7594 22.705 26.5156 22.705 25.2H9.11923C7.755 25.2 6.64864 26.3195 6.64864 27.7H4.17805V20.825C4.17805 19.7914 5.00956 18.95 6.03099 18.95H24.4214C25.2653 17.4828 26.3817 16.2094 27.7204 15.2H6.03099C2.96592 15.2 0.472168 17.7234 0.472168 20.825V29.575C0.472168 30.6102 1.30213 31.45 2.32511 31.45H6.64864V37.7C6.64864 39.0805 7.755 40.2 9.11923 40.2H31.3545C32.7188 40.2 33.8251 39.0805 33.8251 37.7V37.574C32.3829 37.427 31.0171 37.0552 29.7649 36.4498H10.3545V36.45Z" fill="#99AFC9"/>
</svg>
