<svg xmlns="http://www.w3.org/2000/svg" width="23.3" height="31.3" viewBox="0 0 23.3 31.3">
  <g id="report" transform="translate(-180.35 -240.35)">
    <path id="Path_644" data-name="Path 644" d="M202.867,246.372l-5.243-5.243a2.667,2.667,0,0,0-1.871-.779H183a2.663,2.663,0,0,0-2.65,2.656v26A2.652,2.652,0,0,0,183,271.65h18A2.655,2.655,0,0,0,203.65,269V248.248A2.675,2.675,0,0,0,202.867,246.372Zm-1.517,22.979h-18.7v-26.7h10.7V249.5a1.151,1.151,0,0,0,1.149,1.15h6.853Zm-5.7-21V242.4l5.951,5.949Z" fill="#8e8e8e"/>
    <path id="Path_645" data-name="Path 645" d="M190.35,255.672l-.419.086a5.35,5.35,0,1,0,6.311,6.311l.086-.419H190.35Z" fill="#8e8e8e"/>
    <path id="Path_646" data-name="Path 646" d="M191.931,253.757l-.281.057v6.536h6.535l.057-.28a5.353,5.353,0,0,0-6.311-6.313Z" fill="#8e8e8e"/>
  </g>
</svg>
