<svg xmlns="http://www.w3.org/2000/svg" width="65.966" height="81.189" viewBox="0 0 65.966 81.189">
  <path id="stopwatch" d="M75.924,29.177l3.584-3.584a1.9,1.9,0,0,0,0-2.7l-2.7-2.7a1.9,1.9,0,0,0-2.7,0l-3.282,3.282a32.762,32.762,0,0,0-18.045-8.055V7.611h4.44a1.908,1.908,0,0,0,1.9-1.9V1.9a1.908,1.908,0,0,0-1.9-1.9H40.737a1.908,1.908,0,0,0-1.9,1.9V5.709a1.908,1.908,0,0,0,1.9,1.9h4.44v7.833A32.979,32.979,0,1,0,75.924,29.177Zm-26.941,44.4A25.371,25.371,0,1,1,74.354,48.206,25.364,25.364,0,0,1,48.983,73.577Zm1.9-17.76H47.08a1.908,1.908,0,0,1-1.9-1.9V32.349a1.908,1.908,0,0,1,1.9-1.9h3.806a1.908,1.908,0,0,1,1.9,1.9V53.914A1.908,1.908,0,0,1,50.886,55.817Z" transform="translate(-16)" fill="#1460b8"/>
</svg>
