<svg xmlns="http://www.w3.org/2000/svg" width="28" height="22.402" viewBox="0 0 28 22.402">
  <path id="user-cog" d="M14.89,20.3H2.1v-1.12a3.787,3.787,0,0,1,3.78-3.78c.639,0,1.676.7,3.92.7a10.85,10.85,0,0,0,3.5-.63,8.025,8.025,0,0,1,.267-2.153C12.321,13.38,11.783,14,9.8,14c-2.061,0-2.66-.7-3.92-.7A5.882,5.882,0,0,0,0,19.182V20.3a2.1,2.1,0,0,0,2.1,2.1H17.064A8.415,8.415,0,0,1,14.89,20.3ZM9.8,12.6A6.3,6.3,0,1,0,3.5,6.3,6.3,6.3,0,0,0,9.8,12.6Zm0-10.5A4.2,4.2,0,1,1,5.6,6.3,4.207,4.207,0,0,1,9.8,2.1ZM26.712,16.334a5.133,5.133,0,0,0,0-1.864l1.129-.652a.317.317,0,0,0,.144-.372,6.566,6.566,0,0,0-1.453-2.512.319.319,0,0,0-.394-.061l-1.129.652a5.137,5.137,0,0,0-1.615-.932v-1.3a.319.319,0,0,0-.249-.311,6.6,6.6,0,0,0-2.9,0A.319.319,0,0,0,20,9.289v1.3a5.137,5.137,0,0,0-1.615.932l-1.129-.652a.32.32,0,0,0-.394.061,6.566,6.566,0,0,0-1.453,2.512.322.322,0,0,0,.144.372l1.129.652a5.133,5.133,0,0,0,0,1.864l-1.129.652a.317.317,0,0,0-.144.372,6.6,6.6,0,0,0,1.453,2.512.319.319,0,0,0,.394.061l1.129-.652A5.137,5.137,0,0,0,20,20.21v1.3a.319.319,0,0,0,.249.311,6.6,6.6,0,0,0,2.9,0,.319.319,0,0,0,.249-.311v-1.3a5.137,5.137,0,0,0,1.615-.932l1.129.652a.32.32,0,0,0,.394-.061,6.566,6.566,0,0,0,1.453-2.512.322.322,0,0,0-.144-.372Zm-5.01,1.19A2.122,2.122,0,1,1,23.824,15.4,2.124,2.124,0,0,1,21.7,17.524Z" fill="#8e8e8e"/>
</svg>
